<svg id="Calque_1" data-name="Calque 1" xmlns="http://www.w3.org/2000/svg" viewBox="0 0 30 34.29"><defs><style>.cls-1{fill:#1a1a1a;}</style></defs><title>Icone_Deepmark</title><path class="cls-1" d="M29.2,10.72H27.86V15H29.2a.8.8,0,0,1,.8.81v2.67a.8.8,0,0,1-.8.81H27.86v4.28H29.2a.8.8,0,0,1,.8.81v2.68a.79.79,0,0,1-.8.8H27.86v3.21a3.21,3.21,0,0,1-3.21,3.22H3.21a3.06,3.06,0,0,1-2.27-.94A3.07,3.07,0,0,1,0,31.07V3.21A3.06,3.06,0,0,1,.94.94,3.06,3.06,0,0,1,3.21,0H24.65a3.06,3.06,0,0,1,2.27.94,3.06,3.06,0,0,1,.94,2.27V6.43H29.2a.79.79,0,0,1,.8.8V9.91a.81.81,0,0,1-.23.57A.78.78,0,0,1,29.2,10.72ZM25.72,7.23v-4a1,1,0,0,0-1.07-1.07H3.21A1,1,0,0,0,2.14,3.21V31.07a1,1,0,0,0,1.07,1.08H24.65a1,1,0,0,0,1.07-1.08Z"/><path class="cls-1" d="M21.13,12.3a.34.34,0,0,1,.3-.15.34.34,0,0,1,.29.15l.45.4a.6.6,0,0,1,.11.34.44.44,0,0,1-.11.3L11,24.47a.42.42,0,0,1-.64,0L6,20.05a.36.36,0,0,1-.11-.29A.51.51,0,0,1,6,19.42L6.43,19a.37.37,0,0,1,.3-.15A.36.36,0,0,1,7,19l3.67,3.68Z"/></svg>