<svg xmlns="http://www.w3.org/2000/svg" viewBox="0 0 270.86 184.84"><defs><style>.cls-1{fill:#fff;}</style></defs><title>Logo_DEEPMARK</title><g id="Side_Menu" data-name="Side Menu"><path class="cls-1" d="M0,149.37a1,1,0,0,1,.92-1H13.09a18,18,0,1,1,0,35.93H.92a1,1,0,0,1-.92-1Zm12.47,28.69c6.67,0,11.55-5,11.55-11.75a11.32,11.32,0,0,0-11.55-11.7H6.62v23.45Z"/><path class="cls-1" d="M37.59,149.37a1,1,0,0,1,1-1H59.46a1,1,0,0,1,1,1v4.21a1,1,0,0,1-1,1H44.27V163H56.94a1,1,0,0,1,1,1v4.26a1,1,0,0,1-1,1H44.27v9H59.46a1,1,0,0,1,1,1v4.21a1,1,0,0,1-1,1H38.57a1,1,0,0,1-1-1Z"/><path class="cls-1" d="M68,149.37a1,1,0,0,1,1-1H89.84a1,1,0,0,1,1,1v4.21a1,1,0,0,1-1,1H74.65V163H87.32a1,1,0,0,1,1,1v4.26a1,1,0,0,1-1,1H74.65v9H89.84a1,1,0,0,1,1,1v4.21a1,1,0,0,1-1,1H69a1,1,0,0,1-1-1Z"/><path class="cls-1" d="M98.68,149.37a1,1,0,0,1,1-1h12.06a11.45,11.45,0,1,1,0,22.89h-6.41v12.06a1,1,0,0,1-1,1H99.66a1,1,0,0,1-1-1ZM111.31,165a5.3,5.3,0,0,0,5.29-5.34,5.13,5.13,0,0,0-5.29-5h-6V165Z"/><path class="cls-1" d="M131.46,148.65a.86.86,0,0,1,.92-.76h.82a1,1,0,0,1,.88.51l11.29,24.22h.15l11.29-24.22a.88.88,0,0,1,.87-.51h.83a.86.86,0,0,1,.92.76l6.06,34.49a.9.9,0,0,1-.93,1.19h-4.67a1.1,1.1,0,0,1-1-.78l-3-19.45h-.15l-9,20.17a.87.87,0,0,1-.87.57H145a.94.94,0,0,1-.88-.57L135,164.1h-.15l-3,19.45a1,1,0,0,1-.93.78h-4.62a1,1,0,0,1-1-1.19Z"/><path class="cls-1" d="M169.86,183l16-34.54a.92.92,0,0,1,.87-.56h.52a.86.86,0,0,1,.87.56L203.89,183a.91.91,0,0,1-.88,1.34h-4.46a1.48,1.48,0,0,1-1.49-1l-2.51-5.54H179.2l-2.51,5.54a1.56,1.56,0,0,1-1.49,1h-4.47A.91.91,0,0,1,169.86,183ZM192,172.06l-5.13-11.29h-.15l-5,11.29Z"/><path class="cls-1" d="M209.09,149.37a1,1,0,0,1,1-1h14.68a11.11,11.11,0,0,1,11.18,11c0,4.73-3.13,8.57-7.59,10.37l7,13a1,1,0,0,1-.87,1.49h-5.39a.87.87,0,0,1-.82-.47l-6.83-13.6h-5.7v13.09a1,1,0,0,1-1,1h-4.72a1,1,0,0,1-1-1Zm15.09,15.4a5.23,5.23,0,0,0,5.08-5.24,5.11,5.11,0,0,0-5.08-5h-8.37v10.22Z"/><path class="cls-1" d="M242.82,149.63a1.21,1.21,0,0,1,1.23-1.23h4.52a1.24,1.24,0,0,1,1.23,1.23v13.86l12.93-14.58a1.24,1.24,0,0,1,1-.51h5.13a1.09,1.09,0,0,1,.82,1.84l-13.39,15.1,14.37,17.19a1.13,1.13,0,0,1-.93,1.8h-5.59a1.16,1.16,0,0,1-.93-.36L249.8,167.44v15.65a1.25,1.25,0,0,1-1.23,1.24h-4.52a1.22,1.22,0,0,1-1.23-1.24Z"/><path class="cls-1" d="M178.84,18.52c-18.78,0-38.73,14.36-38.73,41V95.68h11.17V59.51c0-19.62,13.86-29.89,27.56-29.89S206.4,39.89,206.4,59.51v54.68h11.17V59.51C217.57,32.88,197.61,18.52,178.84,18.52Z"/><path class="cls-1" d="M178.84,0C156.92,0,138.66,11.53,129,29.33a63.4,63.4,0,0,1,5.3,17.13c5.17-20.83,22.59-35.35,44.56-35.35,26.32,0,46.17,20.81,46.17,48.4v54.68h11.17V59.51C236.18,25.58,211.53,0,178.84,0Z"/><path class="cls-1" d="M67.92,18.64H53.3V29.75H67.92C87.64,29.75,98,43.54,98,57.16s-10.33,27.41-30,27.41H34.68V95.68H67.92c26.77,0,41.22-19.85,41.22-38.52S94.69,18.64,67.92,18.64Z"/><path class="cls-1" d="M67.92.12H34.68v77H45.84V11.23H67.92c27.74,0,48.67,19.75,48.67,45.93s-20.93,45.92-48.67,45.92H34.68v11.11H67.92c34.11,0,59.83-24.52,59.83-57S102,.12,67.92.12Z"/></g></svg>